<svg width="154" height="40" viewBox="0 0 154 40" fill="none" xmlns="http://www.w3.org/2000/svg">
<path d="M59.0084 32.4204C58.5121 32.4204 58.0159 32.4204 57.3542 32.4204C56.6926 32.4204 56.1964 32.4204 55.5347 32.255C54.8731 32.255 54.2115 32.0896 53.5498 31.9242C52.8882 31.7588 52.3919 31.5933 51.7303 31.4279C50.2416 30.9317 49.4146 29.9392 49.4146 28.4505V9.42835C49.4146 8.93212 49.58 8.43589 49.9108 8.10507C50.2416 7.77425 50.5724 7.60884 51.2341 7.27802C52.3919 6.9472 53.7152 6.61637 55.0385 6.45096C56.3618 6.45096 57.5197 6.28555 58.5121 6.28555C60.6625 6.28555 62.6474 6.61637 64.3015 7.1126C65.9556 7.60884 67.4443 8.43589 68.7676 9.42835C70.0909 10.5862 70.9179 11.9095 71.5795 13.5636C72.2412 15.2177 72.572 17.2026 72.572 19.353C72.572 21.5033 72.2412 23.4882 71.5795 25.1423C70.9179 26.7964 69.9254 28.1197 68.7676 29.2776C67.6097 30.4355 66.121 31.2625 64.4669 31.7588C62.9782 32.255 60.9933 32.4204 59.0084 32.4204ZM56.6926 26.4656C57.0234 26.4656 57.3542 26.631 57.8505 26.631C58.3467 26.631 58.6775 26.631 59.0084 26.631C60.0008 26.631 60.8279 26.4656 61.4895 26.3002C62.3166 25.9694 62.9782 25.6386 63.4744 24.9769C63.9707 24.4807 64.4669 23.6536 64.7977 22.8266C65.1285 21.8341 65.2939 20.8417 65.2939 19.5184C65.2939 17.0372 64.7977 15.2177 63.6398 13.8944C62.482 12.5711 60.9933 12.0749 59.0084 12.0749C58.6775 12.0749 58.1813 12.0749 57.8505 12.0749C57.5197 12.0749 57.0234 12.0749 56.6926 12.2403V26.4656Z" fill="#0E0244"/>
<path d="M76.2111 6.45098C76.2111 5.45852 76.5419 4.46605 77.2036 3.80441C77.8652 3.14277 78.8577 2.81195 80.0156 2.81195C81.1734 2.81195 82.0005 3.14277 82.8275 3.80441C83.4892 4.46605 83.82 5.45852 83.82 6.45098C83.82 7.44344 83.4892 8.4359 82.8275 9.09755C82.1659 9.75919 81.1734 10.09 80.0156 10.09C78.8577 10.09 78.0306 9.75919 77.2036 9.09755C76.5419 8.27049 76.2111 7.44344 76.2111 6.45098ZM82.1659 31.9242C81.6697 31.9242 81.3388 32.0896 81.008 32.0896C80.181 32.0896 79.3539 32.0896 78.8577 31.9242C78.3615 31.9242 78.0306 31.7588 77.6998 31.428C77.369 31.0971 77.0382 30.7663 76.8728 30.4355C76.7073 29.9393 76.5419 29.443 76.5419 28.7814V12.2403C76.8728 12.2403 77.2036 12.0749 77.8652 12.0749C78.196 12.0749 78.6923 11.9095 79.0231 11.9095C79.8502 11.9095 80.6772 11.9095 81.1734 12.0749C81.6697 12.0749 82.0005 12.2403 82.3313 12.5712C82.6621 12.7366 82.9929 13.2328 83.1584 13.5636C83.3238 14.0599 83.4892 14.5561 83.4892 15.2177V30.6009C83.4892 31.2625 82.8275 31.9242 82.1659 31.9242Z" fill="#0E0244"/>
<path d="M97.549 11.2479C99.0377 11.2479 100.526 11.4133 101.85 11.9095C103.173 12.2403 104.165 12.7366 104.993 13.3982C105.489 13.729 105.985 14.2253 106.316 14.7215C106.647 15.2177 106.812 15.7139 106.812 16.541V30.9317C106.812 32.4204 106.481 33.5783 105.985 34.7361C105.489 35.7286 104.662 36.7211 103.835 37.3827C102.842 38.0443 101.85 38.5406 100.526 38.8714C99.2031 39.2022 97.8799 39.3676 96.3912 39.3676C93.91 39.3676 91.9251 39.0368 90.6018 38.3752C89.1131 37.7135 88.4515 36.5557 88.4515 35.067C88.4515 34.4053 88.6169 33.9091 88.7823 33.4129C89.1131 32.9166 89.2785 32.5858 89.6093 32.255C90.4364 32.7512 91.2634 33.082 92.2559 33.4129C93.2484 33.7437 94.2408 33.9091 95.3987 33.9091C96.8874 33.9091 98.0453 33.7437 98.8723 33.2474C99.6994 32.7512 100.196 31.9242 100.196 30.9317V30.2701C99.0377 30.7663 97.7144 30.9317 96.0603 30.9317C94.9025 30.9317 93.7446 30.7663 92.5867 30.4355C91.4289 30.1046 90.4364 29.443 89.6093 28.7814C88.7823 27.9543 88.1206 26.9618 87.6244 25.804C87.1282 24.6461 86.7974 23.1574 86.7974 21.5033C86.7974 19.8492 87.1282 18.3605 87.6244 17.2026C88.1206 16.0448 88.9477 14.8869 89.7748 14.2253C90.7672 13.3982 91.7597 12.902 93.083 12.4057C94.5717 11.5787 96.0603 11.2479 97.549 11.2479ZM100.03 17.2026C99.8648 17.0372 99.534 17.0372 99.2031 16.8718C98.8723 16.7064 98.3761 16.7064 97.8799 16.7064C96.5566 16.7064 95.5641 17.0372 94.9025 17.8643C94.2408 18.6913 93.91 19.6838 93.91 21.0071C93.91 22.6612 94.2408 23.6536 94.9025 24.4807C95.5641 25.1423 96.3912 25.4732 97.3836 25.4732C98.5415 25.4732 99.3686 25.1423 100.03 24.6461V17.2026Z" fill="#0E0244"/>
<path d="M110.947 6.45098C110.947 5.45852 111.278 4.46605 111.94 3.80441C112.601 3.14277 113.594 2.81195 114.752 2.81195C115.91 2.81195 116.737 3.14277 117.564 3.80441C118.225 4.46605 118.556 5.45852 118.556 6.45098C118.556 7.44344 118.225 8.4359 117.564 9.09755C116.902 9.75919 115.91 10.09 114.752 10.09C113.594 10.09 112.767 9.75919 111.94 9.09755C111.278 8.27049 110.947 7.44344 110.947 6.45098ZM116.902 31.9242C116.406 31.9242 116.075 32.0896 115.744 32.0896C114.917 32.0896 114.09 32.0896 113.594 31.9242C113.098 31.9242 112.767 31.7588 112.436 31.428C112.105 31.2625 111.774 30.7663 111.609 30.4355C111.443 29.9393 111.278 29.443 111.278 28.7814V12.2403C111.609 12.2403 111.94 12.0749 112.601 12.0749C112.932 12.0749 113.428 11.9095 113.759 11.9095C114.586 11.9095 115.413 11.9095 115.91 12.0749C116.406 12.0749 116.737 12.2403 117.067 12.5712C117.398 12.7366 117.729 13.2328 117.895 13.5636C118.06 14.0599 118.225 14.5561 118.225 15.2177V30.6009C118.225 31.2625 117.564 31.9242 116.902 31.9242Z" fill="#0E0244"/>
<path d="M122.691 11.9095C122.691 10.5862 122.857 9.26296 123.353 8.27049C123.849 7.27803 124.511 6.45098 125.338 5.78934C126.165 5.1277 127.158 4.63147 128.15 4.30064C129.308 3.96982 130.466 3.80441 131.624 3.80441C133.609 3.80441 135.097 4.13523 136.09 4.63146C137.082 5.1277 137.578 6.12016 137.578 7.27803C137.578 7.77426 137.413 8.27049 137.248 8.76672C137.082 9.26296 136.751 9.59378 136.421 9.75919C135.924 9.59378 135.428 9.42837 134.766 9.42837C134.436 9.59378 133.774 9.59378 132.947 9.59378C131.789 9.59378 130.797 9.75919 130.135 10.2554C129.473 10.5862 129.142 11.4133 129.142 12.2403V13.5636H135.924C136.09 13.8944 136.255 14.2253 136.421 14.7215C136.586 15.2177 136.586 15.714 136.586 16.2102C136.586 17.2027 136.421 17.8643 135.924 18.1951C135.428 18.6913 134.932 18.8568 134.27 18.8568H129.639V30.6009C129.639 31.2625 129.142 31.9242 128.315 32.0896C127.654 32.0896 127.158 32.255 126.496 32.255C125.834 32.255 125.338 32.255 124.842 32.0896C124.346 32.0896 124.015 31.9242 123.684 31.5934C123.353 31.4279 123.022 30.9317 122.857 30.6009C122.691 30.1047 122.526 29.6084 122.526 28.9468V11.9095H122.691Z" fill="#0E0244"/>
<path d="M147.007 24.977C147.007 25.6386 147.172 26.1348 147.668 26.4656C148.165 26.7965 148.826 26.9619 149.653 26.9619C149.984 26.9619 150.48 26.9619 150.977 26.7965H151.142C151.804 26.6311 152.465 26.9619 152.631 27.6235C152.796 27.9543 152.961 28.4506 152.961 28.9468C152.961 29.9393 152.631 30.7663 151.804 31.428C150.977 32.0896 149.653 32.4204 147.668 32.4204C145.187 32.4204 143.368 31.9242 142.044 30.7663C140.721 29.6084 140.059 27.9543 140.059 25.4732V7.93968C140.39 7.93968 140.721 7.77427 141.383 7.60886C141.879 7.44345 142.541 7.44345 143.202 7.44345C144.36 7.44345 145.353 7.60886 146.014 8.10509C146.676 8.60132 147.007 9.42838 147.007 10.7517V13.3982H151.307C151.969 13.3982 152.631 13.8945 152.961 14.5561C153.127 15.0523 153.127 15.5486 153.127 16.0448C153.127 17.0373 152.961 17.6989 152.465 18.0297C151.969 18.5259 151.473 18.6914 150.811 18.6914H147.007V24.977Z" fill="#0E0244"/>
<path d="M6.5733 5.29313C6.5733 4.63149 6.5733 3.80444 6.73871 3.1428C7.06954 1.48869 8.39282 0.330821 9.88151 0H23.9414C30.5578 0.661642 35.6855 6.2856 35.6855 13.0674V24.8116C35.6855 26.7965 34.3623 28.4506 32.3773 28.7814C31.7157 28.7814 30.8886 28.9468 30.227 28.9468C17.1596 28.9468 6.5733 18.3606 6.5733 5.29313Z" fill="url(#paint0_linear)"/>
<path d="M41.1441 11.2478V31.9241C41.1441 34.4053 39.1592 36.5556 36.5126 37.0519C36.1818 37.2173 35.6855 37.2173 35.3547 37.2173H18.152C8.39282 37.2173 0.61853 29.9392 0.61853 21.1725V5.29307C0.61853 4.96225 0.618531 4.46602 0.783941 4.1352C0.949352 3.30815 1.28017 2.6465 1.94181 1.98486C1.94181 2.31568 1.94181 2.6465 1.94181 2.97733C1.94181 20.3454 15.6709 34.2399 32.5427 34.2399C33.5352 34.2399 34.3623 34.2399 35.3547 34.0745C37.8359 33.5782 39.6554 31.2625 39.6554 28.7813V5.45848C40.6478 7.278 41.1441 9.09751 41.1441 11.2478Z" fill="url(#paint1_linear)"/>
<path d="M35.6855 13.2328V24.977C35.6855 26.9619 34.3623 28.616 32.3773 28.9468C31.7157 28.9468 30.8886 29.1122 30.227 29.1122C17.1596 29.1122 6.5733 18.526 6.5733 5.45854C6.5733 4.7969 6.5733 3.96985 6.73871 3.30821C7.06954 1.6541 8.39282 0.496232 9.88151 0.165411C10.2123 0.165411 10.3777 0 10.7086 0H22.4527C22.9489 0 23.4452 6.28526e-07 23.9414 0.165411C30.5578 0.827053 35.6855 6.45101 35.6855 13.2328Z" fill="white"/>
<path d="M35.6855 13.2328V24.977C35.6855 26.9619 34.3623 28.616 32.3773 28.9468C31.7157 28.9468 30.8886 29.1122 30.227 29.1122C17.1596 29.1122 6.5733 18.526 6.5733 5.45854C6.5733 4.7969 6.5733 3.96985 6.73871 3.30821C7.06954 1.6541 8.39282 0.496232 9.88151 0.165411C10.2123 0.165411 10.3777 0 10.7086 0H22.4527C22.9489 0 23.4452 6.28526e-07 23.9414 0.165411C30.5578 0.827053 35.6855 6.45101 35.6855 13.2328Z" fill="url(#paint2_linear)"/>
<defs>
<linearGradient id="paint0_linear" x1="6.62127" y1="14.5247" x2="35.6445" y2="14.5247" gradientUnits="userSpaceOnUse">
<stop offset="0.0137063" stop-color="#5AC8FA"/>
<stop offset="0.1956" stop-color="#44B4FB"/>
<stop offset="0.5419" stop-color="#1F94FD"/>
<stop offset="0.8224" stop-color="#087FFF"/>
<stop offset="1" stop-color="#0078FF"/>
</linearGradient>
<linearGradient id="paint1_linear" x1="0.611252" y1="19.7331" x2="41.225" y2="19.7331" gradientUnits="userSpaceOnUse">
<stop offset="0.0137063" stop-color="#5AC8FA"/>
<stop offset="0.1956" stop-color="#44B4FB"/>
<stop offset="0.5419" stop-color="#1F94FD"/>
<stop offset="0.8224" stop-color="#087FFF"/>
<stop offset="1" stop-color="#0078FF"/>
</linearGradient>
<linearGradient id="paint2_linear" x1="6.62127" y1="14.4825" x2="35.6445" y2="14.4825" gradientUnits="userSpaceOnUse">
<stop stop-color="#0078FF"/>
<stop offset="0.327" stop-color="#325EFF"/>
<stop offset="0.6177" stop-color="#574AFF"/>
<stop offset="0.8518" stop-color="#6E3EFF"/>
<stop offset="1" stop-color="#763AFF"/>
</linearGradient>
</defs>
</svg>
